<?xml version="1.0" encoding="utf-8"?>
<!-- Generator: Adobe Illustrator 23.0.6, SVG Export Plug-In . SVG Version: 6.00 Build 0)  -->
<svg version="1.1" id="Layer_1" xmlns="http://www.w3.org/2000/svg" xmlns:xlink="http://www.w3.org/1999/xlink" x="0px" y="0px"
	 viewBox="0 0 32 32" style="enable-background:new 0 0 32 32;" xml:space="preserve">
<g id="layer1" transform="translate(0,-32.770412)">
	<path id="path3346" d="M14.2,62.7c-1.6-0.2-3-0.7-4.4-1.3c-6.9-3.4-9.7-11.6-6.4-18.6c2.8-5.9,9.4-9.1,15.8-7.6
		c5.4,1.2,9.5,5.4,10.7,10.9c0.2,1,0.3,3.4,0.2,4.5c-0.2,1.6-0.7,3.1-1.4,4.5c-0.8,1.5-1.5,2.6-2.9,3.9c-2.1,2-4.4,3.1-7.3,3.7
		C17.4,62.8,15.1,62.8,14.2,62.7L14.2,62.7z M17.6,57.2c0.8-0.2,1.9-0.7,2.5-1.2c0.5-0.5,1-1.2,1.2-1.9c0.1-0.3,0.2-0.5,0.2-0.6
		c0,0-2.4-0.1-5.4-0.1h-5.4l0,0.3c0.1,0.5,0.6,1.4,1,1.9c0.7,0.8,1.6,1.3,2.7,1.5C15.2,57.4,16.8,57.4,17.6,57.2L17.6,57.2z"/>
</g>
</svg>
