<?xml version="1.0" encoding="utf-8"?>
<!-- Generator: Adobe Illustrator 23.0.6, SVG Export Plug-In . SVG Version: 6.00 Build 0)  -->
<svg version="1.1" id="Layer_1" xmlns="http://www.w3.org/2000/svg" xmlns:xlink="http://www.w3.org/1999/xlink" x="0px" y="0px"
	 viewBox="0 0 32 32" style="enable-background:new 0 0 32 32;" xml:space="preserve">
<style type="text/css">
	.st0{fill:none;}
</style>
<g>
	<path class="st0" d="M24.9,17.9c0.6,0.3,0.6,1.2,0,1.5l-6.4,3.7c-0.6,0.3-1.3-0.1-1.3-0.8v-1H14c1.1,2.6,3.7,4.5,6.7,4.5
		c4,0,7.3-3.2,7.3-7.3s-3.2-7.3-7.3-7.3c-0.5,0-0.9,0-1.4,0.1v3.1L24.9,17.9z"/>
	<path class="st0" d="M18.1,6.4c0-0.2-0.2-0.5-0.4-0.5H8.9v3.6h9.2V6.4z"/>
	<path class="st0" d="M15.8,11.1H8.9v3.6h3.8C13.3,13.2,14.4,12,15.8,11.1z"/>
	<path class="st0" d="M14.6,14.7h2.7c0-0.4,0.4-0.7,0.8-0.8v-2.1C16.6,12.4,15.4,13.4,14.6,14.7z"/>
	<path class="st0" d="M12.1,16.2H8.9v3.6h3c-0.1-0.4-0.1-0.8-0.1-1.2C11.7,17.7,11.9,16.9,12.1,16.2z"/>
	<path class="st0" d="M3.6,19.4c0,0.2,0.2,0.5,0.4,0.5h3.5v-3.6H3.6V19.4z"/>
	<path class="st0" d="M17.3,16.2h-3.4c-0.3,0.7-0.4,1.5-0.4,2.4c0,0.4,0,0.8,0.1,1.2h3.7V16.2z"/>
	<path class="st0" d="M3.6,6.4v3.2h3.9V5.9H4C3.8,5.9,3.6,6.2,3.6,6.4z"/>
	<rect x="3.6" y="11.1" class="st0" width="3.9" height="3.6"/>
	<path d="M18.1,19.4v-3.2h-0.8v3.6h0.4C17.9,19.8,18.1,19.6,18.1,19.4z"/>
	<path d="M17.3,14.7h0.8v-0.8C17.7,14,17.3,14.3,17.3,14.7z"/>
	<path d="M17.8,21.3h-0.5v1c0,0.7,0.7,1.1,1.3,0.8l6.4-3.7c0.6-0.3,0.6-1.2,0-1.5l-5.5-3.4v5C19.4,20.5,18.7,21.3,17.8,21.3z"/>
	<path d="M17.3,14.7c0,0,0,0.1,0,0.1v1.4h0.8v3.2c0,0.2-0.2,0.5-0.4,0.5h-0.4v1.5h0.5c0.9,0,1.6-0.8,1.6-1.8v-5L18.6,14
		c-0.2-0.1-0.3-0.1-0.5-0.1v0.8H17.3z"/>
	<path d="M20.7,9.6c-0.5,0-0.9,0-1.4,0.1V6.2c0-1-0.7-1.8-1.6-1.8H3.9C3,4.4,2.3,5.3,2.3,6.2v13.3c0,1,0.7,1.8,1.6,1.8h8.3
		c1.2,3.6,4.6,6.2,8.6,6.2c5,0,9-4,9-9C29.7,13.6,25.7,9.6,20.7,9.6z M8.9,5.9h8.8c0.2,0,0.4,0.2,0.4,0.5v3.2H8.9V5.9z M8.9,11.1
		h6.9c-1.3,0.9-2.4,2.1-3.1,3.6H8.9V11.1z M7.5,19.8H4c-0.2,0-0.4-0.2-0.4-0.5v-3.2h3.9V19.8z M7.5,14.7H3.6v-3.6h3.9V14.7z
		 M7.5,9.6H3.6V6.4c0-0.2,0.2-0.5,0.4-0.5h3.5V9.6z M8.9,19.8v-3.6h3.2c-0.2,0.8-0.3,1.5-0.3,2.4c0,0.4,0,0.8,0.1,1.2H8.9z
		 M20.7,25.8c-3,0-5.6-1.9-6.7-4.5c-0.2-0.5-0.3-1-0.4-1.5c-0.1-0.4-0.1-0.8-0.1-1.2c0-0.8,0.1-1.6,0.4-2.4c0.2-0.5,0.4-1,0.7-1.5
		c0.8-1.3,2-2.3,3.4-2.9c0.4-0.2,0.9-0.3,1.3-0.4c0.4-0.1,0.9-0.1,1.4-0.1c4,0,7.3,3.2,7.3,7.3S24.8,25.8,20.7,25.8z"/>
</g>
</svg>
