<?xml version="1.0" encoding="utf-8"?>
<!-- Generator: Adobe Illustrator 23.0.6, SVG Export Plug-In . SVG Version: 6.00 Build 0)  -->
<svg version="1.1" id="Layer_1" xmlns="http://www.w3.org/2000/svg" xmlns:xlink="http://www.w3.org/1999/xlink" x="0px" y="0px"
	 viewBox="0 0 32 32" style="enable-background:new 0 0 32 32;" xml:space="preserve">
<g>
	<g>
		<path d="M20.6,9.7c-0.5,0-0.9,0-1.4,0.1V6.3c0-1-0.7-1.8-1.6-1.8H3.8c-0.9,0-1.6,0.9-1.6,1.8v13.3c0,1,0.7,1.8,1.6,1.8h8.3
			c1.2,3.6,4.6,6.2,8.6,6.2c5,0,9-4,9-9C29.6,13.7,25.6,9.7,20.6,9.7z M8.8,6h8.8C17.9,6,18,6.2,18,6.5v3.2H8.8V6z M8.8,11.2h6.9
			c-1.3,0.9-2.4,2.1-3.1,3.6H8.8V11.2z M7.4,19.8H3.9c-0.2,0-0.4-0.2-0.4-0.5v-3.2h3.9V19.8z M7.4,14.8H3.5v-3.6h3.9V14.8z M7.4,9.7
			H3.5V6.5C3.5,6.3,3.7,6,3.9,6h3.5V9.7z M8.8,19.8v-3.6H12c-0.2,0.8-0.3,1.5-0.3,2.4c0,0.4,0,0.8,0.1,1.2H8.8z M20.6,25.8
			c-3,0-5.6-1.9-6.7-4.5c-0.2-0.5-0.3-1-0.4-1.5c-0.1-0.4-0.1-0.8-0.1-1.2c0-0.8,0.1-1.6,0.4-2.4c0.2-0.5,0.4-1,0.7-1.5
			c0.8-1.3,2-2.3,3.4-2.9c0.4-0.2,0.9-0.3,1.3-0.4c0.4-0.1,0.9-0.1,1.4-0.1c4,0,7.3,3.2,7.3,7.3S24.7,25.8,20.6,25.8z"/>
	</g>
	<path d="M25,17.9L18.5,14c-0.6-0.3-1.3,0.1-1.3,0.8v7.6c0,0.7,0.7,1.1,1.3,0.8l6.4-3.7C25.5,19.1,25.5,18.3,25,17.9z"/>
</g>
</svg>
